<svg xmlns="http://www.w3.org/2000/svg" aria-hidden="true" style="position:absolute;width:0;height:0;overflow:hidden">
  <defs>
    <symbol id="x-mob" viewBox="0 0 32 32">
      <path fill="none" stroke="#fbfbfb" stroke-linecap="round" stroke-linejoin="round" stroke-width="3" d="M24 8 8 24M8 8l16 16" style="stroke:var(--color1, #fbfbfb)"/>
    </symbol>
    <symbol id="x-tab" viewBox="0 0 32 32">
      <path fill="none" stroke="#fbfbfb" stroke-linecap="round" stroke-linejoin="round" stroke-width="3.2" d="M24 8 8 24M8 8l16 16" style="stroke:var(--color1, #fbfbfb)"/>
    </symbol>
    <symbol id="menu-mob" viewBox="0 0 42 32">
      <path fill="none" stroke="#fbfbfb" stroke-linecap="round" stroke-linejoin="round" stroke-width="4.8" d="M3.734 3.2h34.133M3.734 16h17.067M3.734 28.8h34.133" style="stroke:var(--color1, #fbfbfb)"/>
    </symbol>
    <symbol id="menu-tab" viewBox="0 0 43 32">
      <path fill="none" stroke="#fbfbfb" stroke-linecap="round" stroke-linejoin="round" stroke-width="5.333" d="M3.555 2.667h35.556M3.555 16h17.778M3.555 29.333h35.556" style="stroke:var(--color1, #fbfbfb)"/>
    </symbol>
    <symbol id="squares-mob" viewBox="0 0 32 32">
      <path fill="#fbfbfb" d="M29.082.314h-4.009c-1.237 0-2.24.983-2.24 2.195v3.929c0 1.212 1.003 2.195 2.24 2.195h4.009c1.237 0 2.24-.983 2.24-2.195V2.509c0-1.212-1.003-2.195-2.24-2.195zM6.73 23.04H2.412C1.08 23.04 0 24.023 0 25.235v3.929c0 1.213 1.08 2.195 2.412 2.195H6.73c1.332 0 2.412-.983 2.412-2.195v-3.929c0-1.212-1.08-2.195-2.412-2.195zM6.25 11.582H2.241c-1.237 0-2.24.983-2.24 2.195v3.929c0 1.212 1.003 2.195 2.24 2.195H6.25c1.237 0 2.24-.983 2.24-2.195v-3.929c0-1.212-1.003-2.195-2.24-2.195zM17.766 22.978h-4.009c-1.237 0-2.24.983-2.24 2.195v3.929c0 1.212 1.003 2.195 2.241 2.195h4.009c1.237 0 2.24-.983 2.24-2.195v-3.929c0-1.213-1.003-2.195-2.24-2.195zM6.25.086H2.241c-1.237 0-2.24.983-2.24 2.195V6.21c0 1.212 1.003 2.195 2.24 2.195H6.25c1.237 0 2.24-.983 2.24-2.195V2.281C8.49 1.069 7.487.086 6.25.086zM18.076 11.697h-4.009c-1.237 0-2.24.983-2.24 2.195v3.929c0 1.212 1.003 2.195 2.24 2.195h4.009c1.237 0 2.24-.983 2.24-2.195v-3.929c0-1.212-1.003-2.195-2.24-2.195zM29.333 22.978h-4.01c-1.237 0-2.24.983-2.24 2.195v3.929c0 1.212 1.003 2.195 2.24 2.195h4.009c1.237 0 2.24-.983 2.24-2.195v-3.929c0-1.213-1.003-2.195-2.24-2.195zM17.591.224h-4.009c-1.237 0-2.24.983-2.24 2.195v3.929c0 1.212 1.003 2.195 2.24 2.195h4.009c1.237 0 2.24-.984 2.24-2.196V2.418c0-1.212-1.003-2.195-2.24-2.195zM29.044 11.926h-4.01c-1.237 0-2.24.983-2.24 2.195v3.929c0 1.212 1.003 2.195 2.24 2.195h4.009c1.237 0 2.24-.983 2.24-2.195v-3.929c0-1.212-1.003-2.195-2.24-2.195z" style="fill:var(--color1, #fbfbfb)"/>
    </symbol>
    <symbol id="logo-mob" viewBox="0 0 358 32">
      <path fill="#fbfbfb" d="M15.468 32C6.17 32 0 25.728 0 15.957 0 6.4 6.081 0 15.247 0c7.712 0 13.132 4.395 13.925 11.008h-6.39c-.617-3.797-3.569-5.931-7.535-5.931-5.552 0-8.857 4.352-8.857 10.88 0 7.168 3.702 10.965 9.078 10.965 4.671 0 7.668-2.56 7.976-6.4v-.427h-8.593v-4.779h14.542v3.925c-.265 7.637-5.817 12.757-13.925 12.757zM33.245 31.573V.426h15.468c7.888 0 11.017 3.712 11.017 9.088 0 4.821-3.525 7.125-7.623 7.68v.128c2.644.64 3.834 2.048 4.935 4.821 1.41 3.499 1.63 7.68 3.437 9.173v.256h-7.051c-1.498-1.451-1.851-6.016-2.644-8.789-.793-2.859-2.512-3.2-5.729-3.2h-5.641v11.989h-6.169zm6.17-16.938h8.637c3.613 0 5.288-2.048 5.288-4.693 0-2.901-2.071-4.565-5.288-4.565h-8.637v9.259zM63.827 31.573V.426h21.989v4.949h-15.82v7.424h14.278v4.949H69.996v8.747h16.04v5.077h-22.21zM90.321 31.573V.426h21.99v4.949h-15.82v7.424h14.278v4.949H96.491v8.747h16.04v5.077h-22.21zM116.814 31.573V.426h7.491l10.664 17.195c3.261 5.205 3.658 6.912 3.658 6.912h.132L138.671.426h6.17v31.147h-7.536l-11.061-17.707c-2.512-4.011-3.173-6.443-3.173-6.443h-.088v24.149h-6.169zM149.482 31.573v-6.315h6.434v6.315h-6.434zM160.549 31.573V.426h6.169v12.459h14.762V.426h6.169v31.147h-6.169V17.834h-14.762v13.739h-6.169zM190.287 31.573 202.626.426h6.698l12.515 31.147h-6.609l-2.601-7.168h-13.352l-2.6 7.168h-6.39zm10.753-12.117h9.827l-2.864-7.68c-1.983-5.675-2.027-6.699-2.027-6.699h-.088s0 1.024-1.983 6.699l-2.864 7.68zM224.467 31.573V.426h15.467c7.889 0 11.019 3.712 11.019 9.088 0 4.821-3.526 7.125-7.625 7.68v.128c2.643.64 3.834 2.048 4.937 4.821 1.41 3.499 1.63 7.68 3.437 9.173v.256h-7.051c-1.5-1.451-1.852-6.016-2.645-8.789-.794-2.859-2.511-3.2-5.728-3.2h-5.641v11.989h-6.17zm6.17-16.938h8.638c3.612 0 5.286-2.048 5.286-4.693 0-2.901-2.069-4.565-5.286-4.565h-8.638v9.259zM261.589 31.573 249.779.426h6.611s6.389 17.451 7.051 19.584c1.058 3.413 1.542 5.163 1.542 5.163h.087c-.043 0 .442-1.749 1.542-5.163.706-2.133 6.831-19.584 6.831-19.584h6.389l-11.369 31.147h-6.876zM282.359 31.573V.426h21.99v4.949h-15.821v7.424h14.278v4.949h-14.278v8.747h16.041v5.077h-22.21zM319.887 32c-8.196 0-13.133-4.309-13.133-10.709h7.051c-.087 3.627 2.381 5.632 6.082 5.632 3.921 0 5.773-1.493 5.773-3.712s-1.587-3.157-7.228-4.651c-5.156-1.365-10.797-2.987-10.797-9.387 0-5.077 4.585-9.173 11.81-9.173 7.447 0 12.207 4.053 12.207 9.771h-6.831c-.043-3.029-2.159-4.693-5.376-4.693-3.127 0-5.199 1.536-5.199 3.584 0 2.432 1.717 3.2 6.212 4.437 6.654 1.792 12.03 2.517 12.03 9.472 0 5.589-5.244 9.429-12.602 9.429zM342.537 31.573V5.504h-9.739V.427H358.4v5.077h-9.694v26.069h-6.17z" style="fill:var(--color1, #fbfbfb)"/>
    </symbol>
    <symbol id="logo-desk-tab" viewBox="0 0 358 32">
      <path fill="#fbfbfb" d="M15.468 32C6.17 32 0 25.728 0 15.957 0 6.4 6.081 0 15.247 0c7.712 0 13.132 4.395 13.925 11.008h-6.39c-.617-3.797-3.569-5.931-7.535-5.931-5.552 0-8.857 4.352-8.857 10.88 0 7.168 3.702 10.965 9.078 10.965 4.671 0 7.668-2.56 7.976-6.4v-.427h-8.593v-4.779h14.542v3.925c-.265 7.637-5.817 12.757-13.925 12.757zM33.245 31.573V.426h15.468c7.888 0 11.017 3.712 11.017 9.088 0 4.821-3.525 7.125-7.623 7.68v.128c2.644.64 3.834 2.048 4.935 4.821 1.41 3.499 1.63 7.68 3.437 9.173v.256h-7.051c-1.498-1.451-1.851-6.016-2.644-8.789-.793-2.859-2.512-3.2-5.729-3.2h-5.641v11.989h-6.169zm6.17-16.938h8.637c3.613 0 5.288-2.048 5.288-4.693 0-2.901-2.071-4.565-5.288-4.565h-8.637v9.259zM63.827 31.573V.426h21.989v4.949h-15.82v7.424h14.278v4.949H69.996v8.747h16.04v5.077h-22.21zM90.321 31.573V.426h21.99v4.949h-15.82v7.424h14.278v4.949H96.491v8.747h16.04v5.077h-22.21zM116.814 31.573V.426h7.491l10.664 17.195c3.261 5.205 3.658 6.912 3.658 6.912h.132L138.671.426h6.17v31.147h-7.536l-11.061-17.707c-2.512-4.011-3.173-6.443-3.173-6.443h-.088v24.149h-6.169zM149.482 31.573v-6.315h6.434v6.315h-6.434zM160.549 31.573V.426h6.169v12.459h14.762V.426h6.169v31.147h-6.169V17.834h-14.762v13.739h-6.169zM190.287 31.573 202.626.426h6.698l12.515 31.147h-6.609l-2.601-7.168h-13.352l-2.6 7.168h-6.39zm10.753-12.117h9.827l-2.864-7.68c-1.983-5.675-2.027-6.699-2.027-6.699h-.088s0 1.024-1.983 6.699l-2.864 7.68zM224.467 31.573V.426h15.467c7.889 0 11.019 3.712 11.019 9.088 0 4.821-3.526 7.125-7.625 7.68v.128c2.643.64 3.834 2.048 4.937 4.821 1.41 3.499 1.63 7.68 3.437 9.173v.256h-7.051c-1.5-1.451-1.852-6.016-2.645-8.789-.794-2.859-2.511-3.2-5.728-3.2h-5.641v11.989h-6.17zm6.17-16.938h8.638c3.612 0 5.286-2.048 5.286-4.693 0-2.901-2.069-4.565-5.286-4.565h-8.638v9.259zM261.589 31.573 249.779.426h6.611s6.389 17.451 7.051 19.584c1.058 3.413 1.542 5.163 1.542 5.163h.087c-.043 0 .442-1.749 1.542-5.163.706-2.133 6.831-19.584 6.831-19.584h6.389l-11.369 31.147h-6.876zM282.359 31.573V.426h21.99v4.949h-15.821v7.424h14.278v4.949h-14.278v8.747h16.041v5.077h-22.21zM319.887 32c-8.196 0-13.133-4.309-13.133-10.709h7.051c-.087 3.627 2.381 5.632 6.082 5.632 3.921 0 5.773-1.493 5.773-3.712s-1.587-3.157-7.228-4.651c-5.156-1.365-10.797-2.987-10.797-9.387 0-5.077 4.585-9.173 11.81-9.173 7.447 0 12.207 4.053 12.207 9.771h-6.831c-.043-3.029-2.159-4.693-5.376-4.693-3.127 0-5.199 1.536-5.199 3.584 0 2.432 1.717 3.2 6.212 4.437 6.654 1.792 12.03 2.517 12.03 9.472 0 5.589-5.244 9.429-12.602 9.429zM342.537 31.573V5.504h-9.739V.427H358.4v5.077h-9.694v26.069h-6.17z" style="fill:var(--color1, #fbfbfb)"/>
    </symbol>
    <symbol id="squares-desk-tab" viewBox="0 0 32 32">
      <path fill="#fbfbfb" d="M29.082.314h-4.009c-1.237 0-2.24.983-2.24 2.195v3.929c0 1.212 1.003 2.195 2.24 2.195h4.009c1.237 0 2.24-.983 2.24-2.195V2.509c0-1.212-1.003-2.195-2.24-2.195zM6.73 23.04H2.412C1.08 23.04 0 24.023 0 25.235v3.929c0 1.212 1.08 2.195 2.412 2.195H6.73c1.332 0 2.412-.983 2.412-2.195v-3.929c0-1.212-1.08-2.195-2.412-2.195zM6.25 11.582H2.241c-1.237 0-2.24.983-2.24 2.195v3.929c0 1.212 1.003 2.195 2.24 2.195H6.25c1.237 0 2.24-.983 2.24-2.195v-3.929c0-1.212-1.003-2.195-2.24-2.195zM17.766 22.978h-4.009c-1.237 0-2.24.983-2.24 2.195v3.929c0 1.212 1.003 2.195 2.241 2.195h4.009c1.237 0 2.24-.983 2.24-2.195v-3.929c0-1.212-1.003-2.195-2.24-2.195zM6.25.086H2.241c-1.237 0-2.24.983-2.24 2.195V6.21c0 1.212 1.003 2.195 2.24 2.195H6.25c1.237 0 2.24-.983 2.24-2.195V2.281C8.49 1.069 7.487.086 6.25.086zM18.076 11.697h-4.009c-1.237 0-2.24.983-2.24 2.195v3.929c0 1.212 1.003 2.195 2.24 2.195h4.009c1.237 0 2.24-.983 2.24-2.195v-3.929c0-1.212-1.003-2.195-2.24-2.195zM29.333 22.978h-4.009c-1.237 0-2.24.983-2.24 2.195v3.929c0 1.212 1.003 2.195 2.24 2.195h4.009c1.237 0 2.24-.983 2.24-2.195v-3.929c0-1.212-1.003-2.195-2.24-2.195zM17.591.224h-4.009c-1.237 0-2.24.983-2.24 2.195v3.929c0 1.212 1.003 2.195 2.24 2.195h4.009c1.237 0 2.24-.984 2.24-2.196V2.418c0-1.212-1.003-2.195-2.24-2.195zM29.044 11.926h-4.009c-1.237 0-2.24.983-2.24 2.195v3.929c0 1.212 1.003 2.195 2.24 2.195h4.009c1.237 0 2.24-.983 2.24-2.195v-3.929c0-1.212-1.003-2.195-2.24-2.195z" style="fill:var(--color1, #fbfbfb)"/>
    </symbol>
    <symbol id="checkbox-mark" viewBox="0 0 40 32">
      <path d="M33.782 1.020c0.691-0.662 1.611-1.027 2.565-1.020s1.869 0.387 2.55 1.059c0.681 0.672 1.076 1.584 1.101 2.543s-0.321 1.891-0.966 2.598l-19.578 24.617c-0.337 0.365-0.743 0.657-1.195 0.86s-0.939 0.312-1.434 0.322c-0.495 0.009-0.986-0.082-1.445-0.268s-0.876-0.463-1.226-0.815l-12.984-13.054c-0.362-0.339-0.652-0.747-0.853-1.201s-0.309-0.944-0.318-1.441 0.082-0.99 0.267-1.451c0.185-0.461 0.461-0.879 0.81-1.231s0.766-0.628 1.224-0.814 0.949-0.277 1.443-0.269c0.494 0.009 0.981 0.118 1.433 0.32s0.858 0.494 1.195 0.857l10.275 10.325 17.042-21.83c0.031-0.038 0.063-0.074 0.098-0.109h-0.005z"></path>
    </symbol>
    <symbol id="checkbox-empty" viewBox="0 0 32 32">
      <path stroke-linejoin="miter" stroke-linecap="butt" stroke-miterlimit="4" stroke-width="2" d="M4 1h24c1.657 0 3 1.343 3 3v24c0 1.657-1.343 3-3 3h-24c-1.657 0-3-1.343-3-3v-24c0-1.657 1.343-3 3-3z"></path>
    </symbol>
  </defs>
</svg>
